<svg width="77" height="77" viewBox="0 0 77 77" fill="none" xmlns="http://www.w3.org/2000/svg">
<path d="M37.1373 8.26232C37.3161 8.08305 37.5285 7.94082 37.7624 7.84378C37.9963 7.74673 38.247 7.69678 38.5002 7.69678C38.7534 7.69678 39.0041 7.74673 39.238 7.84378C39.4719 7.94082 39.6843 8.08305 39.8631 8.26232C41.9074 10.3105 46.8085 16.2087 51.2052 23.2889C55.5557 30.2959 59.6752 38.8814 59.6752 46.2002C59.6752 53.2996 57.6424 59.1054 53.8617 63.1556C50.0771 67.2174 44.7218 69.3002 38.5002 69.3002C32.2786 69.3002 26.9271 67.2174 23.1387 63.1556C19.3541 59.1054 17.3252 53.2996 17.3252 46.2002C17.3252 38.8775 21.4447 30.2997 25.7952 23.2889C30.1919 16.2049 35.0929 10.3144 37.1373 8.26232ZM29.0677 25.3178C24.7557 32.2671 21.1752 40.0479 21.1752 46.2002C21.1752 52.5758 22.9924 57.3575 25.9492 60.5261C28.9021 63.6831 33.1718 65.4502 38.5002 65.4502C43.8286 65.4502 48.1021 63.6831 51.0512 60.5261C54.008 57.3575 55.8252 52.5758 55.8252 46.2002C55.8252 40.0479 52.2447 32.2632 47.9327 25.3178C45.1224 20.7963 41.969 16.4973 38.5002 12.4588C35.0314 16.4973 31.8779 20.7963 29.0677 25.3178Z" fill="#FF0000"/>
</svg>
